#tb 0: 1/23
#media_type 0: video
#codec_id 0: rawvideo
#dimensions 0: 32x32
#sar 0: 0/1
0,          0,          0,        1,     1536, 0xea9250ee
0,          1,          1,        1,     1536, 0x5d8d6ee5
0,          2,          2,        1,     1536, 0x89629903
0,          3,          3,        1,     1536, 0x36c0b5f3
0,          4,          4,        1,     1536, 0x477ce2e5
0,          5,          5,        1,     1536, 0x8bc60152
0,          6,          6,        1,     1536, 0x020a2c51
0,          7,          7,        1,     1536, 0x466b4a20
0,          8,          8,        1,     1536, 0x0f07729f
0,          9,          9,        1,     1536, 0x965d845c
0,         10,         10,        1,     1536, 0x80d288fd
0,         11,         11,        1,     1536, 0x288b89e7
0,         12,         12,        1,     1536, 0x19dd8a8e
0,         13,         13,        1,     1536, 0xceee8ac4
0,         14,         14,        1,     1536, 0x87728a7d
0,         15,         15,        1,     1536, 0x326e8a68
0,         16,         16,        1,     1536, 0xbdc38afa
0,         17,         17,        1,     1536, 0x09978a87
0,         18,         18,        1,     1536, 0x408e8a8d
0,         19,         19,        1,     1536, 0x0b018a6d
0,         20,         20,        1,     1536, 0xaeec8a49
0,         21,         21,        1,     1536, 0xfa638a51
0,         22,         22,        1,     1536, 0x3c2c8a81
0,         23,         23,        1,     1536, 0xf0d78961
0,         24,         24,        1,     1536, 0xbd94895b
0,         25,         25,        1,     1536, 0x366289d0
0,         26,         26,        1,     1536, 0x9ac28930
0,         27,         27,        1,     1536, 0x27dc89c4
0,         28,         28,        1,     1536, 0x943c8ad7
0,         29,         29,        1,     1536, 0x13318afc
0,         30,         30,        1,     1536, 0x35ed8c41
0,         31,         31,        1,     1536, 0x46f98e04
0,         32,         32,        1,     1536, 0x24178f02
0,         33,         33,        1,     1536, 0x097d8ffc
0,         34,         34,        1,     1536, 0xd0bf93cd
0,         35,         35,        1,     1536, 0xb3be9447
0,         36,         36,        1,     1536, 0xb94d9623
0,         37,         37,        1,     1536, 0x91b99794
0,         38,         38,        1,     1536, 0xa5f3988e
0,         39,         39,        1,     1536, 0x1ca09bea
0,         40,         40,        1,     1536, 0xf3a89ebb
0,         41,         41,        1,     1536, 0x7f99a125
0,         42,         42,        1,     1536, 0x936da323
0,         43,         43,        1,     1536, 0x24a5a67f
0,         44,         44,        1,     1536, 0x2b08a903
0,         45,         45,        1,     1536, 0xbad1ab9e
0,         46,         46,        1,     1536, 0x4ef5ae90
0,         47,         47,        1,     1536, 0x3f99b00f
0,         48,         48,        1,     1536, 0x6db7b1ec
0,         49,         49,        1,     1536, 0xf030b53e
0,         50,         50,        1,     1536, 0x0f58b83e
0,         51,         51,        1,     1536, 0xa834bbf7
0,         52,         52,        1,     1536, 0x1604c012
0,         53,         53,        1,     1536, 0xb617c1ce
0,         54,         54,        1,     1536, 0x5ea0c4cb
0,         55,         55,        1,     1536, 0xdc4ccb22
0,         56,         56,        1,     1536, 0xd62fceda
0,         57,         57,        1,     1536, 0xfae4d237
0,         58,         58,        1,     1536, 0x8a23d362
0,         59,         59,        1,     1536, 0x9882d23f
0,         60,         60,        1,     1536, 0xd717cf91
0,         61,         61,        1,     1536, 0x0f40cbe3
0,         62,         62,        1,     1536, 0xd684c8e8
0,         63,         63,        1,     1536, 0xa03dc642
0,         64,         64,        1,     1536, 0xeb49c29f
0,         65,         65,        1,     1536, 0xd310c14f
0,         66,         66,        1,     1536, 0x24b6beeb
0,         67,         67,        1,     1536, 0x648cbb4f
0,         68,         68,        1,     1536, 0x6814b9f6
0,         69,         69,        1,     1536, 0x5299b9b5
0,         70,         70,        1,     1536, 0xab1db64b
0,         71,         71,        1,     1536, 0xf7d2b41e
0,         72,         72,        1,     1536, 0x64beb209
0,         73,         73,        1,     1536, 0x7a3ab1f6
0,         74,         74,        1,     1536, 0x6fc0aff9
0,         75,         75,        1,     1536, 0xa1f1b065
0,         76,         76,        1,     1536, 0x4f4baf4b
0,         77,         77,        1,     1536, 0x3f68adf4
0,         78,         78,        1,     1536, 0x2c63ad7b
0,         79,         79,        1,     1536, 0xbb92afa0
0,         80,         80,        1,     1536, 0x04ecb064
0,         81,         81,        1,     1536, 0x2ce1af07
0,         82,         82,        1,     1536, 0xdc19b2d0
0,         83,         83,        1,     1536, 0xc214b900
0,         84,         84,        1,     1536, 0x4fc6c364
0,         85,         85,        1,     1536, 0x4a7ad23a
0,         86,         86,        1,     1536, 0x9b68e2ee
0,         87,         87,        1,     1536, 0xf48be311
0,         88,         88,        1,     1536, 0x9c0fdee9
0,         89,         89,        1,     1536, 0x0fc5d87d
0,         90,         90,        1,     1536, 0x7d1fd237
0,         91,         91,        1,     1536, 0xe7dcccb4
0,         92,         92,        1,     1536, 0x4bc6c6ba
0,         93,         93,        1,     1536, 0x47a6c1ca
0,         94,         94,        1,     1536, 0x5bcbbda6
0,         95,         95,        1,     1536, 0x2465b9e2
0,         96,         96,        1,     1536, 0x9558b4bf
0,         97,         97,        1,     1536, 0x9363b1f3
0,         98,         98,        1,     1536, 0xc539b090
0,         99,         99,        1,     1536, 0x8528aff8
0,        100,        100,        1,     1536, 0xeb52af34
0,        101,        101,        1,     1536, 0x7be7ae53
0,        102,        102,        1,     1536, 0xfcc3ad3c
0,        103,        103,        1,     1536, 0xf12aaafe
0,        104,        104,        1,     1536, 0xfe7da957
0,        105,        105,        1,     1536, 0x5590a58f
0,        106,        106,        1,     1536, 0x4e5fa35d
0,        107,        107,        1,     1536, 0xa50a9fd0
0,        108,        108,        1,     1536, 0x53a1a038
0,        109,        109,        1,     1536, 0xbf8da136
0,        110,        110,        1,     1536, 0x4b0da008
0,        111,        111,        1,     1536, 0xb1dd9d26
0,        112,        112,        1,     1536, 0x6c7e9ab1
0,        113,        113,        1,     1536, 0x9fa597e7
0,        114,        114,        1,     1536, 0xec3c94d1
0,        115,        115,        1,     1536, 0x369b92fb
0,        116,        116,        1,     1536, 0x073b9227
0,        117,        117,        1,     1536, 0x8dda9294
0,        118,        118,        1,     1536, 0xe006922e
0,        119,        119,        1,     1536, 0xc36b8fe3
0,        120,        120,        1,     1536, 0x33ae8fc6
0,        121,        121,        1,     1536, 0xf6468dec
0,        122,        122,        1,     1536, 0x01328b77
0,        123,        123,        1,     1536, 0xb105889e
0,        124,        124,        1,     1536, 0xff7585f6
0,        125,        125,        1,     1536, 0x65408439
0,        126,        126,        1,     1536, 0x318b83b3
0,        127,        127,        1,     1536, 0x2ff682d2
0,        128,        128,        1,     1536, 0x51b081f8
0,        129,        129,        1,     1536, 0xae468044
0,        130,        130,        1,     1536, 0x03427f32
0,        131,        131,        1,     1536, 0xcd677e87
0,        132,        132,        1,     1536, 0x1b2f7e6e
0,        133,        133,        1,     1536, 0xfde47ea3
0,        134,        134,        1,     1536, 0x62be7ebd
0,        135,        135,        1,     1536, 0x95707eb8
0,        136,        136,        1,     1536, 0x77327ec7
0,        137,        137,        1,     1536, 0xb3987e64
0,        138,        138,        1,     1536, 0x51297e97
0,        139,        139,        1,     1536, 0x1d137e96
0,        140,        140,        1,     1536, 0x498d7eaa
0,        141,        141,        1,     1536, 0x57ea37cc
0,        142,        142,        1,     1536, 0xecb2ec3f
0,        143,        143,        1,     1536, 0xe597ec6c
0,        144,        144,        1,     1536, 0xfb0cebab
0,        145,        145,        1,     1536, 0xa97eeb36
0,        146,        146,        1,     1536, 0xb866f9f3
0,        147,        147,        1,     1536, 0xa99ee2aa
0,        148,        148,        1,     1536, 0x10d4e344
0,        149,        149,        1,     1536, 0x8e78e5b0
0,        150,        150,        1,     1536, 0x7ee4e852
